<svg width="30" height="26" viewBox="0 0 30 26" fill="none" xmlns="http://www.w3.org/2000/svg">
<path d="M0 8.71569V8.37584C0 4.28014 2.96016 0.786778 6.99609 0.114121C9.61523 -0.330605 12.3867 0.540098 14.2969 2.45318L15 3.15514L15.6504 2.45318C17.6133 0.540098 20.332 -0.330605 23.0039 0.114121C27.041 0.786778 30 4.28014 30 8.37584V8.71569C30 11.1473 28.9922 13.4735 27.2109 15.1317L16.623 25.0165C16.1836 25.4266 15.6035 25.6551 15 25.6551C14.3965 25.6551 13.8164 25.4266 13.377 25.0165L2.78848 15.1317C1.00957 13.4735 1.75781e-05 11.1473 1.75781e-05 8.71569H0Z" fill="#002ED1"/>
</svg>
